<svg width="24" height="24" viewBox="0 0 24 24" fill="none" xmlns="http://www.w3.org/2000/svg">
<path fill-rule="evenodd" clip-rule="evenodd" d="M6 5C5.73478 5 5.48043 5.10536 5.29289 5.29289C5.10536 5.48043 5 5.73478 5 6V19C5 19.2652 5.10536 19.5196 5.29289 19.7071C5.48043 19.8946 5.73478 20 6 20H18C18.2652 20 18.5196 19.8946 18.7071 19.7071C18.8946 19.5196 19 19.2652 19 19V6C19 5.73478 18.8946 5.48043 18.7071 5.29289C18.5196 5.10536 18.2652 5 18 5H15.5C14.9477 5 14.5 4.55228 14.5 4C14.5 3.44772 14.9477 3 15.5 3H18C18.7956 3 19.5587 3.31607 20.1213 3.87868C20.6839 4.44129 21 5.20435 21 6V19C21 19.7957 20.6839 20.5587 20.1213 21.1213C19.5587 21.6839 18.7957 22 18 22H6C5.20435 22 4.44129 21.6839 3.87868 21.1213C3.31607 20.5587 3 19.7956 3 19V6C3 5.20435 3.31607 4.44129 3.87868 3.87868C4.44129 3.31607 5.20435 3 6 3H8.5C9.05228 3 9.5 3.44772 9.5 4C9.5 4.55228 9.05228 5 8.5 5H6Z" fill="black"/>
<path fill-rule="evenodd" clip-rule="evenodd" d="M10.561 3C10.3381 3.00007 10.1215 3.07463 9.94582 3.21185C9.77008 3.34909 9.64525 3.54113 9.59117 3.75744C9.59116 3.75746 9.59117 3.75743 9.59117 3.75744L9.28065 5H14.7188L14.4079 3.75781C14.3538 3.54147 14.2289 3.3491 14.0532 3.21185C13.8775 3.07463 13.6609 3.00007 13.438 3M10.561 3C10.5609 3 10.561 3 10.561 3ZM8.71484 1.63556C9.2421 1.22381 9.89186 1.0001 10.5608 1H13.438C14.107 1.0001 14.7569 1.22381 15.2842 1.63556C15.8113 2.04724 16.1858 2.6233 16.3481 3.27219C16.3481 3.27229 16.348 3.27209 16.3481 3.27219L16.9701 5.75719C17.0449 6.05596 16.9778 6.37252 16.7883 6.6153C16.5988 6.85808 16.308 7 16 7H8C7.69208 7 7.40133 6.85814 7.21182 6.61545C7.02231 6.37276 6.95518 6.05629 7.02983 5.75756L7.65083 3.27256C7.81306 2.62354 8.18758 2.04731 8.71484 1.63556ZM13.438 3H10.561Z" fill="black"/>
<path fill-rule="evenodd" clip-rule="evenodd" d="M8 12C8 11.4477 8.44772 11 9 11H15C15.5523 11 16 11.4477 16 12C16 12.5523 15.5523 13 15 13H9C8.44772 13 8 12.5523 8 12Z" fill="black"/>
<path fill-rule="evenodd" clip-rule="evenodd" d="M8 16C8 15.4477 8.44772 15 9 15H15C15.5523 15 16 15.4477 16 16C16 16.5523 15.5523 17 15 17H9C8.44772 17 8 16.5523 8 16Z" fill="black"/>
</svg>
