<svg viewBox="0 0 82 11" fill="none" xmlns="http://www.w3.org/2000/svg">
<path d="M1.66614 5.55989L5.33411 7.04231V8.19075L0.541138 5.97005V5.11458L5.33411 2.89973V4.04817L1.66614 5.55989ZM72.6703 10.0658H71.7386L75.3011 0.802078H76.2269L72.6703 10.0658ZM80.7567 5.52473L76.8836 4.00716V2.89388L81.8875 5.10872V5.96419L76.8836 8.18489V7.05989L80.7567 5.52473Z" fill="#CED4DA"/>
<path d="M10.0767 0.933328H6.86073V9.33333H10.0527C12.5847 9.33333 14.2767 7.62933 14.2767 5.10933C14.2767 2.60133 12.5847 0.933328 10.0767 0.933328ZM10.0767 8.03733H8.25273V2.22933H10.0527C11.7447 2.22933 12.8607 3.40533 12.8607 5.15733C12.8607 6.88533 11.7567 8.03733 10.0767 8.03733Z" fill="#FF6B6B"/>
<path d="M20.7182 6.30933C20.7182 4.28133 19.5302 3.27333 17.9342 3.27333C16.1102 3.27333 14.8022 4.52133 14.8022 6.36933C14.8022 8.26533 16.0622 9.46533 17.9102 9.46533C18.7982 9.46533 19.8182 9.18933 20.4302 8.54133L19.7942 7.65333C19.2422 8.13333 18.5222 8.31333 17.9582 8.31333C16.9742 8.31333 16.2422 7.74933 16.1582 6.84933H20.6942C20.7062 6.68133 20.7182 6.50133 20.7182 6.30933ZM17.8862 4.42533C18.7502 4.42533 19.3862 4.89333 19.4462 5.82933H16.1702C16.3382 4.88133 17.0102 4.42533 17.8862 4.42533Z" fill="#F06595"/>
<path d="M23.2216 9.33333H24.6496L27.1336 3.40533H25.7056L24.8656 5.50533C24.4696 6.50133 24.1696 7.37733 23.9656 7.98933H23.9416C23.7256 7.37733 23.4136 6.51333 23.0176 5.50533L22.2016 3.40533H20.7256L23.2216 9.33333Z" fill="#CC5DE8"/>
<path d="M33.141 6.30933C33.141 4.28133 31.953 3.27333 30.357 3.27333C28.533 3.27333 27.225 4.52133 27.225 6.36933C27.225 8.26533 28.485 9.46533 30.333 9.46533C31.221 9.46533 32.241 9.18933 32.853 8.54133L32.217 7.65333C31.665 8.13333 30.945 8.31333 30.381 8.31333C29.397 8.31333 28.665 7.74933 28.581 6.84933H33.117C33.129 6.68133 33.141 6.50133 33.141 6.30933ZM30.309 4.42533C31.173 4.42533 31.809 4.89333 31.869 5.82933H28.593C28.761 4.88133 29.433 4.42533 30.309 4.42533Z" fill="#845EF7"/>
<path d="M35.7524 9.47733C36.0884 9.47733 36.4604 9.40533 36.7724 9.30933L36.4964 8.22933C36.3524 8.26533 36.1964 8.28933 36.0164 8.28933C35.4404 8.28933 35.2244 8.03733 35.2244 7.29333V0.933328H33.8804V7.40133C33.8804 8.76933 34.5164 9.47733 35.7524 9.47733Z" fill="#5C7CFA"/>
<path d="M39.9316 9.46533C41.8756 9.46533 43.1236 8.13333 43.1236 6.34533C43.1236 4.58133 41.9236 3.27333 40.0276 3.27333C38.0836 3.27333 36.8236 4.60533 36.8236 6.39333C36.8236 8.15733 38.0356 9.46533 39.9316 9.46533ZM39.9676 8.27733C38.8756 8.27733 38.1676 7.41333 38.1676 6.34533C38.1676 5.31333 38.8756 4.46133 39.9916 4.46133C41.0836 4.46133 41.7916 5.32533 41.7916 6.39333C41.7916 7.42533 41.0836 8.27733 39.9676 8.27733ZM49.6623 2.20533V0.933328H44.0823V9.33333H45.4743V6.10533H49.4343V4.84533H45.4743V2.20533H49.6623Z" fill="#339AF0"/>
<path d="M53.2685 9.46533C55.2125 9.46533 56.4605 8.13333 56.4605 6.34533C56.4605 4.58133 55.2605 3.27333 53.3645 3.27333C51.4205 3.27333 50.1605 4.60533 50.1605 6.39333C50.1605 8.15733 51.3725 9.46533 53.2685 9.46533ZM53.3045 8.27733C52.2125 8.27733 51.5045 7.41333 51.5045 6.34533C51.5045 5.31333 52.2125 4.46133 53.3285 4.46133C54.4205 4.46133 55.1285 5.32533 55.1285 6.39333C55.1285 7.42533 54.4205 8.27733 53.3045 8.27733Z" fill="#20C997"/>
<path d="M59.1684 9.47733C59.5044 9.47733 59.8764 9.40533 60.1884 9.30933L59.9124 8.22933C59.7684 8.26533 59.6124 8.28933 59.4324 8.28933C58.8564 8.28933 58.6404 8.03733 58.6404 7.29333V0.933328H57.2964V7.40133C57.2964 8.76933 57.9324 9.47733 59.1684 9.47733Z" fill="#51CF66"/>
<path d="M61.3555 2.51733C61.8595 2.51733 62.2195 2.16933 62.2195 1.70133C62.2195 1.20933 61.8595 0.861328 61.3555 0.861328C60.8515 0.861328 60.4915 1.20933 60.4915 1.70133C60.4915 2.16933 60.8515 2.51733 61.3555 2.51733ZM60.6955 9.33333H62.0395V3.40533H60.6955V9.33333Z" fill="#94D82D"/>
<path d="M65.9847 9.46533C67.9287 9.46533 69.1767 8.13333 69.1767 6.34533C69.1767 4.58133 67.9767 3.27333 66.0807 3.27333C64.1367 3.27333 62.8767 4.60533 62.8767 6.39333C62.8767 8.15733 64.0887 9.46533 65.9847 9.46533ZM66.0207 8.27733C64.9287 8.27733 64.2207 7.41333 64.2207 6.34533C64.2207 5.31333 64.9287 4.46133 66.0447 4.46133C67.1367 4.46133 67.8447 5.32533 67.8447 6.39333C67.8447 7.42533 67.1367 8.27733 66.0207 8.27733Z" fill="#FCC419"/>
</svg>
