<?xml version="1.0" standalone="no"?>
<!DOCTYPE svg PUBLIC "-//W3C//DTD SVG 20010904//EN"
 "http://www.w3.org/TR/2001/REC-SVG-20010904/DTD/svg10.dtd">
<svg version="1.0" xmlns="http://www.w3.org/2000/svg"
 width="288.000000pt" height="288.000000pt" viewBox="0 0 288.000000 288.000000"
 preserveAspectRatio="xMidYMid meet">
<metadata>
Created by potrace 1.14, written by Peter Selinger 2001-2017
</metadata>
<g transform="translate(0.000000,288.000000) scale(0.100000,-0.100000)"
fill="#000000" stroke="none">
<path d="M1560 2107 c0 -1 -14 -43 -31 -92 -31 -89 -140 -411 -325 -959 -52
-154 -94 -280 -94 -281 0 -1 180 -2 180 -1 0 2 121 359 279 825 94 277 171
505 171 507 0 2 -40 4 -90 4 -49 0 -90 -1 -90 -3z"/>
<path d="M945 1783 c-33 -13 -73 -30 -90 -38 -16 -7 -106 -46 -200 -85 -93
-40 -183 -78 -200 -85 -16 -7 -59 -25 -95 -40 -36 -15 -67 -30 -70 -32 -3 -3
-5 -48 -5 -101 l0 -97 160 -68 c88 -37 169 -72 180 -77 42 -20 210 -92 220
-94 6 -1 35 -14 65 -28 93 -43 100 -44 101 -11 0 15 1 67 2 115 2 70 -1 89
-13 94 -8 3 -112 40 -230 81 -118 41 -218 78 -222 82 -4 3 99 44 228 90 l234
84 1 36 c2 54 -1 194 -4 197 -1 1 -29 -9 -62 -23z"/>
<path d="M1869 1791 c-1 -12 -2 -65 -2 -118 l-1 -98 242 -84 c138 -48 238 -87
230 -91 -7 -4 -112 -42 -233 -85 -121 -43 -225 -83 -230 -90 -11 -13 -13 -210
-3 -220 5 -5 625 248 706 287 21 11 22 18 22 110 l0 99 -57 25 c-32 14 -67 29
-78 34 -11 5 -146 62 -300 126 -154 64 -283 118 -287 121 -5 2 -8 -5 -9 -16z"/>
</g>
</svg>
