<svg viewBox="0 0 24 24" fill="none" xmlns="http://www.w3.org/2000/svg">
<path d="M8.12414 0.0684543C8.01443 0.0695228 7.90054 0.0965365 7.79678 0.155234C7.46729 0.341637 7.34644 0.773784 7.52895 1.10981L8.27294 2.48092C6.48048 3.61284 5.29271 5.54618 5.29271 7.75277C5.29271 7.76203 5.29268 7.77595 5.29271 7.78965C5.29272 7.79449 5.29266 7.79724 5.29271 7.80267C5.29271 7.80988 5.29271 7.82041 5.29271 7.82219V8.1628C4.94845 7.75855 4.4424 7.50328 3.87699 7.50328C2.84114 7.50328 2 8.36174 2 9.41893V15.3199C2 16.3771 2.84114 17.2356 3.87699 17.2356C4.4424 17.2356 4.94845 16.9803 5.29271 16.5761V17.4026C5.29271 18.517 6.1862 19.4289 7.27811 19.4289H7.7819V22.054C7.7819 23.1112 8.62304 23.9697 9.6589 23.9697C10.6948 23.9697 11.5359 23.1112 11.5359 22.054V19.4289H12.4074V22.054C12.4074 23.1112 13.2486 23.9697 14.2844 23.9697C15.3203 23.9697 16.1614 23.1112 16.1614 22.054V19.4289H16.6652C17.7571 19.4289 18.6506 18.517 18.6506 17.4026V16.5761C18.9949 16.9803 19.5009 17.2356 20.0663 17.2356C21.1022 17.2356 21.9433 16.3771 21.9433 15.3199V9.41893C21.9433 8.36174 21.1022 7.50328 20.0663 7.50328C19.5009 7.50328 18.9949 7.75855 18.6506 8.1628V7.8287V7.82219C18.6507 7.81175 18.6506 7.80137 18.6506 7.80267C18.6507 7.78187 18.6506 7.7653 18.6506 7.75277C18.6506 5.54657 17.4602 3.61509 15.6683 2.48309L16.4144 1.10981C16.5969 0.773782 16.476 0.341635 16.1465 0.155232C16.0428 0.0965344 15.9289 0.0695221 15.8192 0.0684522C15.5759 0.0660754 15.337 0.19695 15.2112 0.428587L14.4311 1.86696C13.6683 1.57966 12.8383 1.42221 11.9717 1.42221C11.1059 1.42221 10.2744 1.57805 9.51222 1.86479L8.73209 0.428587C8.60629 0.19695 8.36746 0.0660809 8.12414 0.0684522V0.0684543Z" fill="white"/>
<path d="M3.87703 8.00226C3.10404 8.00226 2.48895 8.63001 2.48895 9.41893V15.3199C2.48895 16.1089 3.10404 16.7366 3.87703 16.7366C4.65003 16.7366 5.26512 16.1089 5.26512 15.3199V9.41893C5.26512 8.63001 4.65003 8.00226 3.87703 8.00226ZM20.0664 8.00226C19.2934 8.00226 18.6783 8.63001 18.6783 9.41893V15.3199C18.6783 16.1089 19.2934 16.7366 20.0664 16.7366C20.8394 16.7366 21.4544 16.1089 21.4544 15.3199V9.41893C21.4544 8.63001 20.8394 8.00226 20.0664 8.00226Z" fill="#A4C639"/>
<path d="M9.6589 14.7363C8.8859 14.7363 8.27081 15.3641 8.27081 16.153V22.054C8.27081 22.843 8.8859 23.4707 9.6589 23.4707C10.4319 23.4707 11.047 22.843 11.047 22.054V16.153C11.047 15.3641 10.4319 14.7363 9.6589 14.7363ZM14.2844 14.7363C13.5114 14.7363 12.8963 15.3641 12.8963 16.153V22.054C12.8963 22.843 13.5114 23.4707 14.2844 23.4707C15.0574 23.4707 15.6725 22.843 15.6725 22.054V16.153C15.6725 15.3641 15.0574 14.7363 14.2844 14.7363Z" fill="#A4C639"/>
<path d="M8.12839 0.567438C8.09558 0.567781 8.065 0.576421 8.03486 0.593472C7.93588 0.649468 7.90333 0.765552 7.95833 0.866828L8.93616 2.66967C7.05487 3.66872 5.78416 5.56731 5.78162 7.74627H18.1617C18.1592 5.56731 16.8884 3.66872 15.0072 2.66967L15.985 0.866828C16.04 0.765552 16.0074 0.649468 15.9085 0.593472C15.8783 0.576421 15.8477 0.567758 15.8149 0.567438C15.7447 0.566747 15.6781 0.602568 15.6406 0.671574L14.65 2.49394C13.8397 2.1271 12.9308 1.9212 11.9717 1.9212C11.0125 1.9212 10.1036 2.1271 9.29327 2.49394L8.3027 0.671574C8.26522 0.602568 8.19863 0.566751 8.12839 0.567438ZM5.78162 8.24525V17.4026C5.78162 18.2488 6.44905 18.93 7.27811 18.93H16.6652C17.4943 18.93 18.1617 18.2488 18.1617 17.4026V8.24525H5.78162Z" fill="#A4C639"/>
<path d="M9.11472 4.37921C8.83211 4.37921 8.59818 4.61796 8.59818 4.9064C8.59818 5.19484 8.83211 5.43359 9.11472 5.43359C9.39734 5.43359 9.63127 5.19484 9.63127 4.9064C9.63127 4.61796 9.39734 4.37921 9.11472 4.37921ZM14.8286 4.37921C14.546 4.37921 14.3121 4.61796 14.3121 4.9064C14.3121 5.19484 14.546 5.43359 14.8286 5.43359C15.1112 5.43359 15.3452 5.19484 15.3452 4.9064C15.3452 4.61796 15.1112 4.37921 14.8286 4.37921Z" fill="white"/>
</svg>
