<svg viewBox="0 0 24 24" fill="none" xmlns="http://www.w3.org/2000/svg">
<g clip-path="url(#clip0)">
<path d="M8.809 14.92L14.919 3.88299C15.003 3.73099 15.087 3.58099 15.163 3.42399C15.232 3.28199 15.29 3.13899 15.328 2.98399C15.408 2.65799 15.386 2.31799 15.262 2.00699C15.1409 1.70102 14.9232 1.44294 14.642 1.27199C14.3657 1.1044 14.0404 1.0363 13.72 1.07899C13.4 1.12199 13.107 1.27299 12.876 1.50899C12.766 1.61899 12.676 1.74399 12.593 1.87699C12.501 2.02299 12.418 2.17499 12.334 2.32699L11.948 3.02399L11.561 2.32599C11.477 2.17499 11.394 2.02299 11.302 1.87699C11.2212 1.7442 11.1263 1.62049 11.019 1.50799C10.7936 1.27452 10.4964 1.12346 10.175 1.07899C9.85498 1.03662 9.53008 1.1047 9.254 1.27199C8.97286 1.443 8.75518 1.70105 8.634 2.00699C8.509 2.31799 8.487 2.65799 8.568 2.98399C8.606 3.13899 8.664 3.28199 8.732 3.42399C8.808 3.58099 8.892 3.73099 8.976 3.88299L10.224 6.13699L5.362 14.919H2.029C1.862 14.919 1.694 14.919 1.527 14.929C1.375 14.938 1.227 14.957 1.079 15C0.769 15.09 0.497 15.28 0.301 15.548C0.106 15.815 0 16.141 0 16.476C0 16.811 0.106 17.137 0.3 17.404C0.497 17.672 0.768 17.861 1.079 17.952C1.227 17.995 1.375 18.014 1.527 18.023C1.694 18.033 1.862 18.033 2.03 18.033H15.127C15.144 17.996 15.186 17.903 15.227 17.763C15.642 16.347 14.611 14.919 13.192 14.919L8.809 14.92ZM3.113 18.542L2.321 20.042C2.239 20.198 2.156 20.352 2.082 20.513C2.01346 20.6578 1.95985 20.8093 1.922 20.965C1.842 21.3 1.864 21.649 1.986 21.968C2.107 22.286 2.32 22.551 2.593 22.723C2.865 22.895 3.182 22.965 3.494 22.92C3.808 22.876 4.094 22.722 4.32 22.48C4.428 22.365 4.516 22.238 4.598 22.102C4.688 21.952 4.769 21.796 4.851 21.64L6 19.464C5.91 19.314 5.053 17.994 3.113 18.542V18.542ZM23.699 15.536C23.5061 15.2749 23.2322 15.085 22.92 14.996C22.7738 14.9557 22.6235 14.9319 22.472 14.925C22.304 14.915 22.137 14.915 21.969 14.915H18.648L14.258 7.09999C13.682 7.7047 13.3063 8.47218 13.182 9.29799C13.0212 10.3309 13.2136 11.3879 13.728 12.298L19.002 21.691C19.086 21.841 19.169 21.991 19.261 22.135C19.345 22.265 19.435 22.388 19.544 22.499C19.775 22.731 20.068 22.879 20.389 22.922C20.709 22.964 21.032 22.898 21.311 22.732C21.5916 22.5641 21.8097 22.3092 21.932 22.006C22.057 21.699 22.078 21.364 21.998 21.042C21.9587 20.8918 21.9033 20.7464 21.833 20.608C21.758 20.453 21.673 20.305 21.589 20.155L20.373 17.989H21.969C22.137 17.989 22.304 17.989 22.472 17.98C22.624 17.971 22.772 17.952 22.92 17.91C23.2327 17.8209 23.507 17.6306 23.7 17.369C23.8955 17.1037 24.0007 16.7826 24 16.453C24.0007 16.1234 23.8955 15.8023 23.7 15.537L23.699 15.536Z" fill="current"/>
</g>
<defs>
<clipPath id="clip0">
<rect width="24" height="24" fill="white"/>
</clipPath>
</defs>
</svg>
