<svg viewBox="0 0 24 24" fill="none" xmlns="http://www.w3.org/2000/svg">
<path d="M15.0667 2.66668H14.3667C14.1845 2.16675 13.853 1.73495 13.4172 1.42983C12.9813 1.12472 12.4621 0.96106 11.93 0.96106C11.3979 0.96106 10.8787 1.12472 10.4428 1.42983C10.007 1.73495 9.67546 2.16675 9.49333 2.66668H8.93333C8.50953 2.66844 8.10358 2.83757 7.8039 3.13725C7.50422 3.43693 7.33509 3.84287 7.33333 4.26668V6.66668H16.6667V4.26668C16.6649 3.84287 16.4958 3.43693 16.1961 3.13725C15.8964 2.83757 15.4905 2.66844 15.0667 2.66668V2.66668ZM15.3333 5.33335H8.66667V4.16668C8.66667 4.12248 8.68422 4.08009 8.71548 4.04883C8.74674 4.01757 8.78913 4.00001 8.83333 4.00001H10.6267L10.7067 3.26001C10.7209 3.14037 10.761 3.02527 10.8244 2.92278C10.8877 2.82029 10.9727 2.73288 11.0733 2.66668C11.2523 2.5333 11.4618 2.44696 11.6827 2.41558C11.9037 2.3842 12.129 2.40878 12.338 2.48706C12.5469 2.56535 12.7329 2.69484 12.8789 2.86366C13.0248 3.03249 13.1261 3.23524 13.1733 3.45335L13.2333 4.01335H15.1667C15.2109 4.01335 15.2533 4.03091 15.2845 4.06216C15.3158 4.09342 15.3333 4.13581 15.3333 4.18001V5.33335Z" fill="current"/>
<path d="M22.1667 12.04H14.22L16.1133 10.1533C16.1755 10.0912 16.2248 10.0174 16.2584 9.93618C16.2921 9.85497 16.3094 9.76792 16.3094 9.68001C16.3094 9.59211 16.2921 9.50506 16.2584 9.42385C16.2248 9.34263 16.1755 9.26884 16.1133 9.20668C16.0512 9.14452 15.9774 9.09522 15.8962 9.06157C15.8149 9.02793 15.7279 9.01062 15.64 9.01062C15.5521 9.01062 15.465 9.02793 15.3838 9.06157C15.3026 9.09522 15.2288 9.14452 15.1667 9.20668L11.6667 12.7067L15.1667 16.2067C15.229 16.2685 15.3028 16.3173 15.3841 16.3505C15.4653 16.3837 15.5523 16.4005 15.64 16.4C15.771 16.3995 15.899 16.3603 16.008 16.2874C16.1169 16.2146 16.2019 16.1112 16.2524 15.9903C16.3029 15.8693 16.3167 15.7362 16.2919 15.6075C16.2672 15.4788 16.2051 15.3603 16.1133 15.2667L14.22 13.3733H22.1667C22.3435 13.3733 22.513 13.3031 22.6381 13.1781C22.7631 13.0531 22.8333 12.8835 22.8333 12.7067C22.8333 12.5299 22.7631 12.3603 22.6381 12.2353C22.513 12.1103 22.3435 12.04 22.1667 12.04Z" fill="current"/>
<path d="M19.3333 10.6667H20.6667V4.45334C20.6684 4.30746 20.6413 4.16266 20.5869 4.02728C20.5325 3.89191 20.4519 3.76863 20.3496 3.66454C20.2474 3.56045 20.1256 3.4776 19.9912 3.42076C19.8568 3.36392 19.7126 3.33421 19.5667 3.33334H18.0533V4.66668H19.3333V10.6667Z" fill="current"/>
<path d="M19.3333 20.6667H4.66667V4.66668H6V3.33334H4.42667C4.13432 3.33686 3.85524 3.45592 3.65039 3.66452C3.44553 3.87312 3.33155 4.15431 3.33333 4.44668V20.88C3.33157 21.0259 3.35868 21.1707 3.41309 21.3061C3.4675 21.4414 3.54814 21.5647 3.65037 21.6688C3.7526 21.7729 3.87441 21.8558 4.00878 21.9126C4.14315 21.9694 4.28744 21.9991 4.43333 22H19.5733C19.8657 21.9965 20.1448 21.8774 20.3496 21.6688C20.5545 21.4602 20.6684 21.179 20.6667 20.8867V14.7067H19.3333V20.6667Z" fill="current"/>
</svg>
