<svg viewBox="0 0 32 32" fill="none" xmlns="http://www.w3.org/2000/svg">
<g clip-path="url(#clip0_726:1577)">
<path d="M13.3333 31.8222C5.77778 30.4889 0 23.9111 0 16C0 7.2 7.2 0 16 0C24.8 0 32 7.2 32 16C32 23.9111 26.2222 30.4889 18.6667 31.8222L17.7778 31.1111H14.2222L13.3333 31.8222Z" fill="url(#paint0_linear_726:1577)"/>
<path d="M22.2222 20.4444L22.9333 16H18.6666V12.8889C18.6666 11.6444 19.1111 10.6667 21.0666 10.6667H23.1111V6.57778C21.9555 6.4 20.7111 6.22222 19.5555 6.22222C15.9111 6.22222 13.3333 8.44444 13.3333 12.4444V16H9.33331V20.4444H13.3333V31.7333C14.2222 31.9111 15.1111 32 16 32C16.8889 32 17.7778 31.9111 18.6666 31.7333V20.4444H22.2222Z" fill="white"/>
</g>
<defs>
<linearGradient id="paint0_linear_726:1577" x1="16" y1="30.8924" x2="16" y2="0" gradientUnits="userSpaceOnUse">
<stop stop-color="#0062E0"/>
<stop offset="1" stop-color="#19AFFF"/>
</linearGradient>
<clipPath id="clip0_726:1577">
<rect width="32" height="32" fill="white"/>
</clipPath>
</defs>
</svg>
