<svg viewBox="0 0 24 24" fill="none" xmlns="http://www.w3.org/2000/svg">
<g clip-path="url(#clip0)">
<path d="M9.305 15.4078C9.305 16.3875 8.76 17.9906 7.47 17.9906C6.18 17.9906 5.635 16.3875 5.635 15.4078C5.635 14.4281 6.18 12.825 7.47 12.825C8.76 12.825 9.305 14.4281 9.305 15.4078ZM24 13.0406C24 14.5359 23.84 16.1203 23.125 17.4938C21.23 21.0844 16.02 21 12.29 21C8.5 21 2.98 21.1266 1.01 17.4938C0.28 16.1344 0 14.5359 0 13.0406C0 11.0766 0.695 9.22031 2.075 7.71563C1.815 6.975 1.69 6.19688 1.69 5.42813C1.69 4.42031 1.935 3.91406 2.42 3C4.685 3 6.135 3.42188 7.86 4.6875C9.31 4.36406 10.8 4.21875 12.295 4.21875C13.645 4.21875 15.005 4.35469 16.315 4.65C18.015 3.39844 19.465 3 21.705 3C22.195 3.91406 22.435 4.42031 22.435 5.42813C22.435 6.19688 22.305 6.96094 22.05 7.6875C23.425 9.20625 24 11.0766 24 13.0406ZM20.785 15.4078C20.785 13.35 19.45 11.5359 17.11 11.5359C16.165 11.5359 15.26 11.6953 14.31 11.8172C13.565 11.925 12.82 11.9672 12.055 11.9672C11.295 11.9672 10.55 11.925 9.8 11.8172C8.865 11.6953 7.95 11.5359 7 11.5359C4.66 11.5359 3.325 13.35 3.325 15.4078C3.325 19.5234 7.345 20.1562 10.845 20.1562H13.255C16.77 20.1562 20.785 19.5281 20.785 15.4078ZM16.655 12.825C15.365 12.825 14.82 14.4281 14.82 15.4078C14.82 16.3875 15.365 17.9906 16.655 17.9906C17.945 17.9906 18.49 16.3875 18.49 15.4078C18.49 14.4281 17.945 12.825 16.655 12.825Z" fill="current"/>
</g>
<defs>
<clipPath id="clip0">
<rect width="24" height="24" fill="white"/>
</clipPath>
</defs>
</svg>
