<svg viewBox="0 0 24 24" fill="none" xmlns="http://www.w3.org/2000/svg">
<path d="M20.707 5.82601L17.172 2.29301C16.9856 2.10632 16.733 2.00092 16.4692 1.9998C16.2055 1.99867 15.9519 2.10192 15.764 2.28701L7.096 10.82C6.96089 10.9537 6.86626 11.1229 6.823 11.308L5.799 15.745L4 18H6.828L7.97 16.871L11.558 16.043C11.738 16.001 11.903 15.91 12.035 15.781L20.702 7.24601C20.7961 7.15338 20.8708 7.04304 20.922 6.92136C20.9732 6.79968 20.9998 6.66906 21.0003 6.53705C21.0008 6.40504 20.9751 6.27424 20.9247 6.1522C20.8744 6.03016 20.8004 5.9193 20.707 5.82601V5.82601ZM11.338 13.659L9.217 11.539L16.46 4.40801L18.58 6.52801L11.338 13.659ZM4 20H20V22H4V20Z" fill="current"/>
</svg>
