<svg viewBox="0 0 24 24" fill="none" xmlns="http://www.w3.org/2000/svg">
<path d="M7.49899 11C8.32742 11 8.99899 10.3284 8.99899 9.5C8.99899 8.67157 8.32742 8 7.49899 8C6.67057 8 5.99899 8.67157 5.99899 9.5C5.99899 10.3284 6.67057 11 7.49899 11Z" fill="current"/>
<path d="M10.499 14L8.99899 12L5.99899 16H17.999L13.499 10L10.499 14Z" fill="current"/>
<path d="M19.999 4H3.99899C2.89599 4 1.99899 4.897 1.99899 6V18C1.99899 19.103 2.89599 20 3.99899 20H19.999C21.102 20 21.999 19.103 21.999 18V6C21.999 4.897 21.102 4 19.999 4ZM3.99899 18V6H19.999L20.001 18H3.99899V18Z" fill="current"/>
</svg>
