<svg viewBox="0 0 24 24" fill="none" xmlns="http://www.w3.org/2000/svg">
<path d="M4.22199 19.778C4.68587 20.2425 5.23696 20.6108 5.84361 20.8617C6.45026 21.1126 7.10051 21.2412 7.75699 21.24C8.41362 21.2411 9.06401 21.1126 9.67082 20.8617C10.2776 20.6108 10.8289 20.2425 11.293 19.778L14.121 16.949L12.707 15.535L9.87899 18.364C9.31546 18.925 8.55266 19.24 7.75749 19.24C6.96232 19.24 6.19952 18.925 5.63599 18.364C5.0745 17.8007 4.7592 17.0378 4.7592 16.2425C4.7592 15.4472 5.0745 14.6843 5.63599 14.121L8.46499 11.293L7.05099 9.87899L4.22199 12.707C3.2858 13.6454 2.76004 14.9169 2.76004 16.2425C2.76004 17.5681 3.2858 18.8395 4.22199 19.778V19.778ZM19.778 11.293C20.7137 10.3543 21.2391 9.08291 21.2391 7.75749C21.2391 6.43207 20.7137 5.16071 19.778 4.22199C18.8395 3.2858 17.5681 2.76004 16.2425 2.76004C14.9169 2.76004 13.6454 3.2858 12.707 4.22199L9.87899 7.05099L11.293 8.46499L14.121 5.63599C14.6845 5.07498 15.4473 4.76002 16.2425 4.76002C17.0377 4.76002 17.8005 5.07498 18.364 5.63599C18.9255 6.19926 19.2408 6.96216 19.2408 7.75749C19.2408 8.55282 18.9255 9.31572 18.364 9.87899L15.535 12.707L16.949 14.121L19.778 11.293Z" fill="current"/>
<path d="M8.464 16.95L7.049 15.536L15.536 7.04999L16.95 8.46499L8.464 16.95Z" fill="current"/>
</svg>
