<svg viewBox="0 0 32 32" fill="none" xmlns="http://www.w3.org/2000/svg">
<rect width="32" height="32" rx="16" fill="#0A66C2"/>
<path d="M8.98301 11.197C10.1914 11.197 11.171 10.2174 11.171 9.009C11.171 7.8006 10.1914 6.821 8.98301 6.821C7.77461 6.821 6.79501 7.8006 6.79501 9.009C6.79501 10.2174 7.77461 11.197 8.98301 11.197Z" fill="white"/>
<path d="M13.237 12.855V24.994H17.006V18.991C17.006 17.407 17.304 15.873 19.268 15.873C21.205 15.873 21.229 17.684 21.229 19.091V24.995H25V18.338C25 15.068 24.296 12.555 20.474 12.555C18.639 12.555 17.409 13.562 16.906 14.515H16.855V12.855H13.237V12.855ZM7.095 12.855H10.87V24.994H7.095V12.855Z" fill="white"/>
</svg>
