<svg viewBox="0 0 24 24" fill="none" xmlns="http://www.w3.org/2000/svg">
<path d="M4.00299 21C4.08399 21 4.16499 20.99 4.24499 20.97L8.24499 19.97C8.42099 19.926 8.582 19.835 8.70999 19.707L21.003 7.414C21.381 7.036 21.589 6.534 21.589 6C21.589 5.466 21.381 4.964 21.003 4.586L19.417 3C18.661 2.244 17.345 2.244 16.589 3L4.29599 15.293C4.16806 15.4211 4.07718 15.5814 4.03299 15.757L3.03299 19.757C2.99606 19.9044 2.99322 20.0584 3.0247 20.2071C3.05618 20.3558 3.12114 20.4954 3.21466 20.6152C3.30818 20.735 3.42778 20.832 3.56438 20.8987C3.70098 20.9653 3.85099 21 4.00299 21ZM18.003 4.414L19.589 6L18.003 7.586L16.417 6L18.003 4.414ZM5.906 16.511L15.003 7.414L16.589 9L7.49099 18.097L5.37699 18.625L5.906 16.511Z" fill="current"/>
</svg>
