<svg viewBox="0 0 24 24" fill="none" xmlns="http://www.w3.org/2000/svg">
<path d="M19.9 12.66C19.7397 12.4775 19.6513 12.2429 19.6513 12C19.6513 11.7571 19.7397 11.5225 19.9 11.34L21.18 9.9C21.321 9.74267 21.4086 9.54471 21.4302 9.33451C21.4517 9.12431 21.4062 8.91269 21.3 8.73L19.3 5.27C19.1949 5.08752 19.0349 4.94288 18.8427 4.85669C18.6506 4.7705 18.4362 4.74716 18.23 4.79L16.35 5.17C16.1108 5.21943 15.8617 5.17959 15.6499 5.058C15.438 4.93641 15.278 4.74149 15.2 4.51L14.59 2.68C14.5229 2.48138 14.3951 2.30887 14.2246 2.18684C14.0541 2.06482 13.8496 1.99946 13.64 2H9.63999C9.42192 1.98862 9.20612 2.04893 9.02555 2.17172C8.84498 2.2945 8.70957 2.47302 8.63999 2.68L8.07999 4.51C8.00199 4.74149 7.84196 4.93641 7.6301 5.058C7.41824 5.17959 7.1692 5.21943 6.92999 5.17L4.99999 4.79C4.80454 4.76238 4.60529 4.79322 4.42734 4.87864C4.24938 4.96406 4.10069 5.10023 3.99999 5.27L1.99999 8.73C1.89115 8.91065 1.84221 9.12109 1.86017 9.33123C1.87813 9.54136 1.96207 9.74044 2.09999 9.9L3.36999 11.34C3.53031 11.5225 3.61872 11.7571 3.61872 12C3.61872 12.2429 3.53031 12.4775 3.36999 12.66L2.09999 14.1C1.96207 14.2596 1.87813 14.4586 1.86017 14.6688C1.84221 14.8789 1.89115 15.0894 1.99999 15.27L3.99999 18.73C4.10509 18.9125 4.26511 19.0571 4.45724 19.1433C4.64937 19.2295 4.86381 19.2528 5.06999 19.21L6.94999 18.83C7.1892 18.7806 7.43824 18.8204 7.6501 18.942C7.86196 19.0636 8.02199 19.2585 8.09999 19.49L8.70999 21.32C8.77957 21.527 8.91498 21.7055 9.09555 21.8283C9.27612 21.9511 9.49192 22.0114 9.70999 22H13.71C13.9196 22.0005 14.1241 21.9352 14.2946 21.8132C14.4651 21.6911 14.5929 21.5186 14.66 21.32L15.27 19.49C15.348 19.2585 15.508 19.0636 15.7199 18.942C15.9317 18.8204 16.1808 18.7806 16.42 18.83L18.3 19.21C18.5062 19.2528 18.7206 19.2295 18.9127 19.1433C19.1049 19.0571 19.2649 18.9125 19.37 18.73L21.37 15.27C21.4762 15.0873 21.5217 14.8757 21.5002 14.6655C21.4786 14.4553 21.391 14.2573 21.25 14.1L19.9 12.66ZM18.41 14L19.21 14.9L17.93 17.12L16.75 16.88C16.0298 16.7328 15.2806 16.8551 14.6446 17.2238C14.0086 17.5925 13.5301 18.1818 13.3 18.88L12.92 20H10.36L9.99999 18.86C9.76984 18.1618 9.29137 17.5725 8.65539 17.2038C8.01942 16.8351 7.27021 16.7128 6.54999 16.86L5.36999 17.1L4.06999 14.89L4.86999 13.99C5.36194 13.44 5.63392 12.7279 5.63392 11.99C5.63392 11.2521 5.36194 10.54 4.86999 9.99L4.06999 9.09L5.34999 6.89L6.52999 7.13C7.25021 7.27722 7.99942 7.15488 8.63539 6.7862C9.27137 6.41752 9.74984 5.82816 9.97999 5.13L10.36 4H12.92L13.3 5.14C13.5301 5.83816 14.0086 6.42752 14.6446 6.7962C15.2806 7.16488 16.0298 7.28722 16.75 7.14L17.93 6.9L19.21 9.12L18.41 10.02C17.9236 10.5688 17.655 11.2767 17.655 12.01C17.655 12.7433 17.9236 13.4512 18.41 14ZM11.64 8C10.8489 8 10.0755 8.2346 9.41771 8.67412C8.75991 9.11365 8.24722 9.73836 7.94447 10.4693C7.64172 11.2002 7.56251 12.0044 7.71685 12.7804C7.87119 13.5563 8.25215 14.269 8.81156 14.8284C9.37097 15.3878 10.0837 15.7688 10.8596 15.9231C11.6356 16.0775 12.4398 15.9983 13.1707 15.6955C13.9016 15.3928 14.5263 14.8801 14.9659 14.2223C15.4054 13.5645 15.64 12.7911 15.64 12C15.64 10.9391 15.2186 9.92172 14.4684 9.17157C13.7183 8.42143 12.7009 8 11.64 8ZM11.64 14C11.2444 14 10.8577 13.8827 10.5288 13.6629C10.1999 13.4432 9.9436 13.1308 9.79223 12.7654C9.64085 12.3999 9.60125 11.9978 9.67842 11.6098C9.75559 11.2219 9.94607 10.8655 10.2258 10.5858C10.5055 10.3061 10.8618 10.1156 11.2498 10.0384C11.6378 9.96126 12.0399 10.0009 12.4054 10.1522C12.7708 10.3036 13.0832 10.56 13.3029 10.8889C13.5227 11.2178 13.64 11.6044 13.64 12C13.64 12.5304 13.4293 13.0391 13.0542 13.4142C12.6791 13.7893 12.1704 14 11.64 14Z"/>
</svg>
