<svg viewBox="0 0 32 32" fill="none" xmlns="http://www.w3.org/2000/svg">
<rect width="32" height="32" rx="16" fill="white"/>
<path d="M22.2107 24.0788V18.4688H24.1058V25.9407H7V18.4688H8.8952V24.0787L22.2107 24.0788Z" fill="#BCBBBB"/>
<path d="M10.9873 17.9368L20.2909 19.8471L20.6847 18.0094L11.3812 16.0991L10.9874 17.9368H10.9873ZM12.2179 13.5842L20.8324 17.5257L21.62 15.8331L13.0055 11.8674L12.2179 13.5842V13.5842ZM14.6054 9.42513L21.9153 15.3978L23.1213 13.9711L15.8114 7.99844L14.6054 9.42513V9.42513ZM19.3311 5L17.8049 6.11231L23.4659 13.6084L24.9919 12.4961L19.3311 5ZM10.7903 22.1926H20.2908V20.3307H10.7904V22.1926H10.7903Z" fill="#F48023"/>
</svg>
