<svg viewBox="0 0 24 24" fill="none" xmlns="http://www.w3.org/2000/svg">
<path d="M23.643 4.937C22.808 5.307 21.911 5.557 20.968 5.67C21.941 5.08779 22.669 4.17147 23.016 3.092C22.1019 3.63499 21.1014 4.0172 20.058 4.222C19.3564 3.47287 18.4271 2.97633 17.4143 2.80947C16.4016 2.64262 15.3621 2.81479 14.4572 3.29925C13.5524 3.78371 12.8328 4.55336 12.4102 5.4887C11.9875 6.42405 11.8855 7.47275 12.12 8.472C10.2677 8.379 8.45564 7.89755 6.80144 7.05891C5.14723 6.22026 3.68785 5.04316 2.51801 3.604C2.11801 4.294 1.88801 5.094 1.88801 5.946C1.88757 6.713 2.07644 7.46824 2.43789 8.14473C2.79934 8.82122 3.32217 9.39804 3.96001 9.824C3.22029 9.80046 2.49688 9.60058 1.85001 9.241V9.301C1.84994 10.3767 2.22204 11.4194 2.90319 12.252C3.58434 13.0846 4.53258 13.6559 5.58701 13.869C4.9008 14.0547 4.18135 14.0821 3.48301 13.949C3.78051 14.8746 4.36001 15.684 5.14038 16.2639C5.92075 16.8438 6.86293 17.1652 7.83501 17.183C6.18484 18.4784 4.1469 19.1811 2.04901 19.178C1.67739 19.1781 1.30609 19.1564 0.937012 19.113C3.06649 20.4822 5.54535 21.2088 8.07701 21.206C16.647 21.206 21.332 14.108 21.332 7.952C21.332 7.752 21.327 7.55 21.318 7.35C22.2293 6.69097 23.0159 5.8749 23.641 4.94L23.643 4.937Z" fill="current"/>
</svg>
