<svg viewBox="0 0 32 32" fill="none" xmlns="http://www.w3.org/2000/svg">
<rect width="32" height="32" rx="16" fill="#1D9BF0"/>
<path d="M27.643 8.937C26.808 9.307 25.911 9.557 24.968 9.67C25.941 9.08779 26.669 8.17147 27.016 7.092C26.1019 7.63499 25.1014 8.0172 24.058 8.222C23.3564 7.47287 22.4271 6.97633 21.4143 6.80947C20.4016 6.64262 19.3621 6.81479 18.4572 7.29925C17.5524 7.78371 16.8328 8.55336 16.4102 9.4887C15.9875 10.424 15.8855 11.4728 16.12 12.472C14.2677 12.379 12.4556 11.8975 10.8014 11.0589C9.14723 10.2203 7.68785 9.04316 6.51801 7.604C6.11801 8.294 5.88801 9.094 5.88801 9.946C5.88757 10.713 6.07644 11.4682 6.43789 12.1447C6.79934 12.8212 7.32217 13.398 7.96001 13.824C7.22029 13.8005 6.49688 13.6006 5.85001 13.241V13.301C5.84994 14.3767 6.22204 15.4194 6.90319 16.252C7.58434 17.0846 8.53258 17.6559 9.58701 17.869C8.9008 18.0547 8.18135 18.0821 7.48301 17.949C7.78051 18.8746 8.36001 19.684 9.14038 20.2639C9.92075 20.8438 10.8629 21.1652 11.835 21.183C10.1848 22.4784 8.1469 23.1811 6.04901 23.178C5.67739 23.1781 5.30609 23.1564 4.93701 23.113C7.06649 24.4822 9.54535 25.2088 12.077 25.206C20.647 25.206 25.332 18.108 25.332 11.952C25.332 11.752 25.327 11.55 25.318 11.35C26.2293 10.691 27.0159 9.8749 27.641 8.94L27.643 8.937V8.937Z" fill="white"/>
</svg>
