<svg viewBox="0 0 32 32" fill="none" xmlns="http://www.w3.org/2000/svg">
<rect width="32" height="32" rx="16" fill="#20C997"/>
<path d="M6.43201 11.9839V10.564C7.39201 10.271 8.52001 9.95541 9.81601 9.61732C11.112 9.25669 11.988 9.07638 12.444 9.07638C13.452 9.07638 14.052 9.52716 14.244 10.4287L16.584 22.9041C17.328 21.98 17.94 21.2024 18.42 20.5713C19.164 19.5796 19.848 18.4414 20.472 17.1567C21.12 15.8719 21.444 14.7224 21.444 13.7082C21.444 13.0996 21.264 12.615 20.904 12.2544C20.568 11.8712 19.932 11.3866 18.996 10.8006C19.956 9.65113 21.156 9.07638 22.596 9.07638C23.364 9.07638 24 9.2905 24.504 9.71875C25.032 10.147 25.296 10.7781 25.296 11.612C25.296 13.0095 24.672 14.7562 23.424 16.8524C22.2 18.926 19.836 22.0477 16.332 26.2174L12.768 26.4541L10.032 11.9839H6.43201Z" fill="white"/>
</svg>
