<svg viewBox="0 0 32 32" fill="none" xmlns="http://www.w3.org/2000/svg">
<rect width="32" height="32" rx="16" fill="#FF0000"/>
<g clip-path="url(#clip0_726:1614)">
<path d="M27.5 10.507C27.3641 10.0222 27.0994 9.58335 26.734 9.237C26.3583 8.88 25.8978 8.62464 25.396 8.495C23.518 8 15.994 8 15.994 8C12.8573 7.96431 9.72144 8.12127 6.60401 8.47C6.1022 8.60921 5.64257 8.87029 5.26601 9.23C4.89601 9.586 4.62801 10.025 4.48801 10.506C4.1517 12.3177 3.9883 14.1573 4.00001 16C3.98801 17.841 4.15101 19.68 4.48801 21.494C4.62501 21.973 4.89201 22.41 5.26301 22.763C5.63401 23.116 6.09601 23.371 6.60401 23.506C8.50701 24 15.994 24 15.994 24C19.1347 24.0357 22.2746 23.8788 25.396 23.53C25.8978 23.4004 26.3583 23.145 26.734 22.788C27.104 22.435 27.367 21.996 27.499 21.518C27.8441 19.707 28.0119 17.8666 28 16.023C28.026 14.1716 27.8584 12.3226 27.5 10.506V10.507ZM13.602 19.424V12.577L19.862 16.001L13.602 19.424Z" fill="white"/>
</g>
<defs>
<clipPath id="clip0_726:1614">
<rect width="24" height="24" fill="white" transform="translate(4 4)"/>
</clipPath>
</defs>
</svg>
