<svg width="496" height="160" viewBox="0 0 496 160" fill="none" xmlns="http://www.w3.org/2000/svg">
<path d="M0 8C0 3.58172 3.58172 0 8 0H488C492.418 0 496 3.58172 496 8V152C496 156.418 492.418 160 488 160H7.99999C3.58171 160 0 156.418 0 152V8Z" fill="#F8F9FA"/>
<rect width="192" height="144" transform="translate(296 8)" fill="#E9ECEF"/>
<rect width="130" height="16" transform="translate(8 8)" fill="#E9ECEF"/>
<rect width="108" height="8" transform="translate(8 28)" fill="#E9ECEF"/>
<rect width="272" height="8" transform="translate(8 52)" fill="#E9ECEF"/>
<rect width="272" height="8" transform="translate(8 64)" fill="#E9ECEF"/>
<rect width="120" height="8" transform="translate(8 76)" fill="#E9ECEF"/>
<rect x="8" y="136" width="16" height="16" rx="8" fill="#E9ECEF"/>
<rect x="32" y="136" width="16" height="16" rx="8" fill="#E9ECEF"/>
<rect x="56" y="136" width="16" height="16" rx="8" fill="#E9ECEF"/>
</svg>
