<svg viewBox="0 0 24 24" fill="none" xmlns="http://www.w3.org/2000/svg">
<path fill-rule="evenodd" clip-rule="evenodd" d="M8.8 7.4C9.03638 7.4 9.27044 7.35344 9.48883 7.26299C9.70722 7.17253 9.90565 7.03994 10.0728 6.87279C10.2399 6.70565 10.3725 6.50722 10.463 6.28883C10.5534 6.07045 10.6 5.83638 10.6 5.6C10.6 5.36362 10.5534 5.12956 10.463 4.91117C10.3725 4.69279 10.2399 4.49436 10.0728 4.32721C9.90565 4.16007 9.70722 4.02748 9.48883 3.93702C9.27044 3.84656 9.03638 3.8 8.8 3.8C8.32261 3.8 7.86477 3.98965 7.52721 4.32721C7.18964 4.66478 7 5.12261 7 5.6C7 6.07739 7.18964 6.53523 7.52721 6.87279C7.86477 7.21036 8.32261 7.4 8.8 7.4ZM15.2 7.4C15.4364 7.4 15.6704 7.35344 15.8888 7.26299C16.1072 7.17253 16.3056 7.03994 16.4728 6.87279C16.6399 6.70565 16.7725 6.50722 16.863 6.28883C16.9534 6.07045 17 5.83638 17 5.6C17 5.36362 16.9534 5.12956 16.863 4.91117C16.7725 4.69279 16.6399 4.49436 16.4728 4.32721C16.3056 4.16007 16.1072 4.02748 15.8888 3.93702C15.6704 3.84656 15.4364 3.8 15.2 3.8C14.7226 3.8 14.2648 3.98965 13.9272 4.32721C13.5896 4.66478 13.4 5.12261 13.4 5.6C13.4 6.07739 13.5896 6.53523 13.9272 6.87279C14.2648 7.21036 14.7226 7.4 15.2 7.4ZM17 12C17 12.4774 16.8104 12.9352 16.4728 13.2728C16.1352 13.6104 15.6774 13.8 15.2 13.8C14.7226 13.8 14.2648 13.6104 13.9272 13.2728C13.5896 12.9352 13.4 12.4774 13.4 12C13.4 11.5226 13.5896 11.0648 13.9272 10.7272C14.2648 10.3896 14.7226 10.2 15.2 10.2C15.6774 10.2 16.1352 10.3896 16.4728 10.7272C16.8104 11.0648 17 11.5226 17 12ZM8.8 13.8C9.27739 13.8 9.73523 13.6104 10.0728 13.2728C10.4104 12.9352 10.6 12.4774 10.6 12C10.6 11.5226 10.4104 11.0648 10.0728 10.7272C9.73523 10.3896 9.27739 10.2 8.8 10.2C8.32261 10.2 7.86477 10.3896 7.52721 10.7272C7.18964 11.0648 7 11.5226 7 12C7 12.4774 7.18964 12.9352 7.52721 13.2728C7.86477 13.6104 8.32261 13.8 8.8 13.8ZM17 18.4C17 18.8774 16.8104 19.3352 16.4728 19.6728C16.1352 20.0104 15.6774 20.2 15.2 20.2C14.7226 20.2 14.2648 20.0104 13.9272 19.6728C13.5896 19.3352 13.4 18.8774 13.4 18.4C13.4 17.9226 13.5896 17.4648 13.9272 17.1272C14.2648 16.7896 14.7226 16.6 15.2 16.6C15.6774 16.6 16.1352 16.7896 16.4728 17.1272C16.8104 17.4648 17 17.9226 17 18.4ZM8.8 20.2C9.27739 20.2 9.73523 20.0104 10.0728 19.6728C10.4104 19.3352 10.6 18.8774 10.6 18.4C10.6 17.9226 10.4104 17.4648 10.0728 17.1272C9.73523 16.7896 9.27739 16.6 8.8 16.6C8.32261 16.6 7.86477 16.7896 7.52721 17.1272C7.18964 17.4648 7 17.9226 7 18.4C7 18.8774 7.18964 19.3352 7.52721 19.6728C7.86477 20.0104 8.32261 20.2 8.8 20.2Z" fill="current"/>
</svg>
