<svg viewBox="0 0 24 24" fill="none" xmlns="http://www.w3.org/2000/svg">
<path d="M15.8977 15.0563C16.4648 14.7516 17.1141 14.5781 17.8055 14.5781H17.8078C17.8781 14.5781 17.9109 14.4938 17.8594 14.4469C17.1403 13.8016 16.319 13.2804 15.4289 12.9047C15.4195 12.9 15.4102 12.8977 15.4008 12.893C16.8562 11.8359 17.8031 10.118 17.8031 8.17969C17.8031 4.96875 15.2062 2.36719 12.0023 2.36719C8.79843 2.36719 6.2039 4.96875 6.2039 8.17969C6.2039 10.118 7.15078 11.8359 8.60859 12.893C8.59922 12.8977 8.58984 12.9 8.58047 12.9047C7.53281 13.3477 6.59297 13.9828 5.78437 14.7938C4.98045 15.5962 4.34042 16.5475 3.9 17.5945C3.46667 18.6198 3.23281 19.7184 3.21094 20.8312C3.21031 20.8563 3.2147 20.8812 3.22384 20.9044C3.23298 20.9277 3.24669 20.949 3.26417 20.9669C3.28164 20.9848 3.30252 20.999 3.32558 21.0087C3.34864 21.0184 3.37341 21.0234 3.39844 21.0234H4.80234C4.90312 21.0234 4.9875 20.9414 4.98984 20.8406C5.03672 19.0313 5.76094 17.3367 7.04297 16.0523C8.36719 14.7234 10.1297 13.9922 12.0047 13.9922C13.3336 13.9922 14.6086 14.3602 15.7078 15.0492C15.736 15.067 15.7685 15.077 15.8018 15.0782C15.8351 15.0794 15.8682 15.0719 15.8977 15.0563V15.0563ZM12.0047 12.2109C10.9312 12.2109 9.92109 11.7914 9.15937 11.0297C8.7846 10.6559 8.48748 10.2116 8.28515 9.72248C8.08282 9.23335 7.97927 8.70902 7.98047 8.17969C7.98047 7.10391 8.4 6.09141 9.15937 5.32969C9.91875 4.56797 10.9289 4.14844 12.0047 4.14844C13.0805 4.14844 14.0883 4.56797 14.85 5.32969C15.2248 5.70349 15.5219 6.14776 15.7242 6.63689C15.9265 7.12603 16.0301 7.65036 16.0289 8.17969C16.0289 9.25547 15.6094 10.268 14.85 11.0297C14.0883 11.7914 13.0781 12.2109 12.0047 12.2109ZM20.625 17.7891H18.6562V15.8203C18.6562 15.7172 18.5719 15.6328 18.4687 15.6328H17.1562C17.0531 15.6328 16.9687 15.7172 16.9687 15.8203V17.7891H15C14.8969 17.7891 14.8125 17.8734 14.8125 17.9766V19.2891C14.8125 19.3922 14.8969 19.4766 15 19.4766H16.9687V21.4453C16.9687 21.5484 17.0531 21.6328 17.1562 21.6328H18.4687C18.5719 21.6328 18.6562 21.5484 18.6562 21.4453V19.4766H20.625C20.7281 19.4766 20.8125 19.3922 20.8125 19.2891V17.9766C20.8125 17.8734 20.7281 17.7891 20.625 17.7891Z" fill="current"/>
</svg>
