<svg viewBox="0 0 24 24" fill="none" xmlns="http://www.w3.org/2000/svg">
<path d="M1.93948 1.9395C2.22078 1.65829 2.60224 1.50032 2.99998 1.50032C3.39773 1.50032 3.77919 1.65829 4.06048 1.9395L12 9.879L19.9395 1.9395C20.0779 1.79623 20.2434 1.68196 20.4264 1.60335C20.6094 1.52473 20.8062 1.48335 21.0054 1.48162C21.2046 1.47989 21.4021 1.51785 21.5864 1.59327C21.7708 1.66869 21.9382 1.78007 22.0791 1.92091C22.2199 2.06175 22.3313 2.22922 22.4067 2.41357C22.4821 2.59791 22.5201 2.79543 22.5184 2.9946C22.5166 3.19377 22.4752 3.3906 22.3966 3.57361C22.318 3.75661 22.2037 3.92213 22.0605 4.0605L14.121 12L22.0605 19.9395C22.3337 20.2224 22.4849 20.6013 22.4815 20.9946C22.4781 21.3879 22.3203 21.7641 22.0422 22.0422C21.7641 22.3203 21.3879 22.4781 20.9946 22.4815C20.6013 22.4849 20.2224 22.3337 19.9395 22.0605L12 14.121L4.06048 22.0605C3.77758 22.3337 3.39868 22.4849 3.00538 22.4815C2.61209 22.4781 2.23587 22.3203 1.95776 22.0422C1.67964 21.7641 1.52189 21.3879 1.51847 20.9946C1.51506 20.6013 1.66625 20.2224 1.93948 19.9395L9.87898 12L1.93948 4.0605C1.65828 3.77921 1.50031 3.39775 1.50031 3C1.50031 2.60225 1.65828 2.22079 1.93948 1.9395V1.9395Z" fill="current"/>
</svg>
